<svg width="22" height="22" viewBox="0 0 22 22" fill="none" xmlns="http://www.w3.org/2000/svg">
<path d="M11 2.75C15.5375 2.75 19.25 6.4625 19.25 11C19.25 15.5375 15.5375 19.25 11 19.25C6.4625 19.25 2.75 15.5375 2.75 11C2.75 6.4625 6.4625 2.75 11 2.75ZM11 1.375C5.70625 1.375 1.375 5.70625 1.375 11C1.375 16.2937 5.70625 20.625 11 20.625C16.2937 20.625 20.625 16.2937 20.625 11C20.625 5.70625 16.2937 1.375 11 1.375Z" fill="#F8F8F8"/>
<path d="M16.5 10.3125H11.6875V5.5H10.3125V10.3125H5.5V11.6875H10.3125V16.5H11.6875V11.6875H16.5V10.3125Z" fill="#F8F8F8"/>
</svg>
