<svg width="39" height="39" viewBox="0 0 39 39" fill="none" xmlns="http://www.w3.org/2000/svg">
<path d="M16.575 3.89999H22.425C23.0301 3.89968 23.6205 4.08705 24.1147 4.4363C24.6088 4.78554 24.9825 5.27947 25.1843 5.84999H28.275C29.0508 5.84999 29.7947 6.15816 30.3433 6.70671C30.8918 7.25525 31.2 7.99924 31.2 8.77499V32.175C31.2 32.9508 30.8918 33.6947 30.3433 34.2433C29.7947 34.7918 29.0508 35.1 28.275 35.1H10.725C9.94925 35.1 9.20526 34.7918 8.65672 34.2433C8.10817 33.6947 7.8 32.9508 7.8 32.175V8.77499C7.8 7.99924 8.10817 7.25525 8.65672 6.70671C9.20526 6.15816 9.94925 5.84999 10.725 5.84999H13.8158C14.0175 5.27947 14.3912 4.78554 14.8853 4.4363C15.3795 4.08705 15.9699 3.89968 16.575 3.89999V3.89999ZM15.6 6.82499C15.6 7.08358 15.7027 7.33158 15.8856 7.51442C16.0684 7.69727 16.3164 7.79999 16.575 7.79999H22.425C22.6836 7.79999 22.9316 7.69727 23.1144 7.51442C23.2973 7.33158 23.4 7.08358 23.4 6.82499C23.4 6.56641 23.2973 6.31841 23.1144 6.13557C22.9316 5.95272 22.6836 5.84999 22.425 5.84999H16.575C16.3164 5.84999 16.0684 5.95272 15.8856 6.13557C15.7027 6.31841 15.6 6.56641 15.6 6.82499ZM24.8625 18.0375C25.2504 18.0375 25.6224 17.8834 25.8966 17.6091C26.1709 17.3349 26.325 16.9629 26.325 16.575C26.325 16.1871 26.1709 15.8151 25.8966 15.5409C25.6224 15.2666 25.2504 15.1125 24.8625 15.1125C24.4746 15.1125 24.1026 15.2666 23.8284 15.5409C23.5541 15.8151 23.4 16.1871 23.4 16.575C23.4 16.9629 23.5541 17.3349 23.8284 17.6091C24.1026 17.8834 24.4746 18.0375 24.8625 18.0375ZM24.8625 23.8875C25.2504 23.8875 25.6224 23.7334 25.8966 23.4591C26.1709 23.1849 26.325 22.8129 26.325 22.425C26.325 22.0371 26.1709 21.6651 25.8966 21.3909C25.6224 21.1166 25.2504 20.9625 24.8625 20.9625C24.4746 20.9625 24.1026 21.1166 23.8284 21.3909C23.5541 21.6651 23.4 22.0371 23.4 22.425C23.4 22.8129 23.5541 23.1849 23.8284 23.4591C24.1026 23.7334 24.4746 23.8875 24.8625 23.8875ZM23.4 28.275C23.4 28.6629 23.5541 29.0349 23.8284 29.3091C24.1026 29.5834 24.4746 29.7375 24.8625 29.7375C25.2504 29.7375 25.6224 29.5834 25.8966 29.3091C26.1709 29.0349 26.325 28.6629 26.325 28.275C26.325 27.8871 26.1709 27.5151 25.8966 27.2409C25.6224 26.9666 25.2504 26.8125 24.8625 26.8125C24.4746 26.8125 24.1026 26.9666 23.8284 27.2409C23.5541 27.5151 23.4 27.8871 23.4 28.275ZM21.45 16.575C21.45 16.3164 21.3473 16.0684 21.1644 15.8856C20.9816 15.7027 20.7336 15.6 20.475 15.6H13.65C13.3914 15.6 13.1434 15.7027 12.9606 15.8856C12.7777 16.0684 12.675 16.3164 12.675 16.575C12.675 16.8336 12.7777 17.0816 12.9606 17.2644C13.1434 17.4473 13.3914 17.55 13.65 17.55H20.475C20.7336 17.55 20.9816 17.4473 21.1644 17.2644C21.3473 17.0816 21.45 16.8336 21.45 16.575ZM21.45 22.425C21.45 22.1664 21.3473 21.9184 21.1644 21.7356C20.9816 21.5527 20.7336 21.45 20.475 21.45H13.65C13.3914 21.45 13.1434 21.5527 12.9606 21.7356C12.7777 21.9184 12.675 22.1664 12.675 22.425C12.675 22.6836 12.7777 22.9316 12.9606 23.1144C13.1434 23.2973 13.3914 23.4 13.65 23.4H20.475C20.7336 23.4 20.9816 23.2973 21.1644 23.1144C21.3473 22.9316 21.45 22.6836 21.45 22.425ZM21.45 28.275C21.45 28.0164 21.3473 27.7684 21.1644 27.5856C20.9816 27.4027 20.7336 27.3 20.475 27.3H13.65C13.3914 27.3 13.1434 27.4027 12.9606 27.5856C12.7777 27.7684 12.675 28.0164 12.675 28.275C12.675 28.5336 12.7777 28.7816 12.9606 28.9644C13.1434 29.1473 13.3914 29.25 13.65 29.25H20.475C20.7336 29.25 20.9816 29.1473 21.1644 28.9644C21.3473 28.7816 21.45 28.5336 21.45 28.275Z" fill="#E2E8F0"/>
</svg>
