<svg width="22" height="22" viewBox="0 0 22 22" fill="none" xmlns="http://www.w3.org/2000/svg">
<path d="M0 19.9375C0 21.0762 1.0558 22 2.35714 22H19.6429C20.9442 22 22 21.0762 22 19.9375V8.25H0V19.9375ZM3.14286 11.6875C3.14286 11.3094 3.49643 11 3.92857 11H8.64286C9.075 11 9.42857 11.3094 9.42857 11.6875V15.8125C9.42857 16.1906 9.075 16.5 8.64286 16.5H3.92857C3.49643 16.5 3.14286 16.1906 3.14286 15.8125V11.6875ZM19.6429 2.75H17.2857V0.6875C17.2857 0.309375 16.9321 0 16.5 0H14.9286C14.4964 0 14.1429 0.309375 14.1429 0.6875V2.75H7.85714V0.6875C7.85714 0.309375 7.50357 0 7.07143 0H5.5C5.06786 0 4.71429 0.309375 4.71429 0.6875V2.75H2.35714C1.0558 2.75 0 3.67383 0 4.8125V6.875H22V4.8125C22 3.67383 20.9442 2.75 19.6429 2.75Z" fill="#94A3B8"/>
</svg>
