<svg width="14" height="14" viewBox="0 0 17 20" fill="none" xmlns="http://www.w3.org/2000/svg">
<path d="M16.182 2.63086C16.6676 2.04648 16.5902 1.17852 16.0059 0.692969C15.4215 0.207422 14.5535 0.284766 14.068 0.869141L8.25 7.85156L2.43203 0.869141C1.94648 0.284766 1.07852 0.207422 0.494141 0.692969C-0.0902342 1.17852 -0.167578 2.04648 0.317969 2.63086L6.4582 10L0.317969 17.3691C-0.167578 17.9535 -0.0902342 18.8215 0.494141 19.307C1.07852 19.7926 1.94648 19.7152 2.43203 19.1309L8.25 12.1484L14.068 19.1309C14.5535 19.7152 15.4215 19.7926 16.0059 19.307C16.5902 18.8215 16.6676 17.9535 16.182 17.3691L10.0418 10L16.182 2.63086Z" fill="#F24E1E"/>
</svg>
