<svg width="22" height="22" viewBox="0 0 22 22" fill="none" xmlns="http://www.w3.org/2000/svg">
<path d="M5.19922 1.375C3.93594 1.375 2.83594 2.23438 2.53086 3.45898L0.0816406 13.2516C0.0257813 13.4707 0 13.6941 0 13.9176V17.875C0 19.3918 1.2332 20.625 2.75 20.625H19.25C20.7668 20.625 22 19.3918 22 17.875V13.9176C22 13.6941 21.9742 13.4707 21.9184 13.2516L19.4691 3.45898C19.1641 2.23438 18.0641 1.375 16.8008 1.375H5.19922ZM5.19922 4.125H16.8008L18.8633 12.375H16.6633C16.1434 12.375 15.6664 12.6672 15.4344 13.1355L14.8199 14.3645C14.5879 14.8285 14.1109 15.125 13.591 15.125H8.41328C7.89336 15.125 7.41641 14.8328 7.18437 14.3645L6.56992 13.1355C6.33789 12.6715 5.86094 12.375 5.34102 12.375H3.13672L5.19922 4.125Z" fill="#94A3B8"/>
</svg>
