<svg width="22" height="22" viewBox="0 0 22 22" fill="none" xmlns="http://www.w3.org/2000/svg">
<path d="M20.8278 4.08134C20.5844 3.91101 20.3098 3.79031 20.0197 3.72613C19.7296 3.66195 19.4297 3.65555 19.1371 3.7073C18.8446 3.75904 18.5651 3.86792 18.3146 4.02771C18.0641 4.1875 17.8476 4.39507 17.6773 4.63856L9.07672 16.9214L3.4375 13.0694C2.98522 12.76 2.42856 12.643 1.88998 12.744C1.3514 12.8451 0.875023 13.1559 0.565644 13.6082C0.256265 14.0605 0.139227 14.6171 0.240277 15.1557C0.341326 15.6943 0.652187 16.1707 1.10447 16.4801L8.66353 21.6432C8.89635 21.8021 9.15945 21.9113 9.43638 21.9638C9.71331 22.0164 9.99811 22.0113 10.273 21.9488C10.5661 21.8975 10.8463 21.7889 11.0974 21.6292C11.3485 21.4695 11.5656 21.2617 11.7363 21.0179L21.3854 7.23353C21.7293 6.74132 21.8637 6.13271 21.7591 5.54145C21.6545 4.95019 21.3194 4.42465 20.8275 4.08031" fill="#94A3B8"/>
</svg>
